<svg xmlns="http://www.w3.org/2000/svg"  viewBox="0 0 120 120" width="60px" height="60px" baseProfile="basic"><polygon points="72,105 60,116 48,105 48,64 72,64 72,79.067 67,82 67,85 72,88 72,91 67,94 67,97 72,100" opacity=".35"/><polygon fill="#ffc400" points="72,101 60,112 48,101 48,60 72,60 72,75.067 67,78 67,81 72,84 72,87 67,90 67,93 72,96"/><polygon fill="#ffa400" points="58,110.167 54,106.5 54,65 58,65"/><path d="M60,11c-16.569,0-30,13.431-30,30s13.431,30,30,30s30-13.431,30-30S76.569,11,60,11z M60,33 c-4.418,0-8-3.582-8-8s3.582-8,8-8s8,3.582,8,8S64.418,33,60,33z" opacity=".35"/><path fill="#ffc400" d="M60,7C43.431,7,30,20.431,30,37s13.431,30,30,30s30-13.431,30-30S76.569,7,60,7z M60,29 c-4.418,0-8-3.582-8-8s3.582-8,8-8s8,3.582,8,8S64.418,29,60,29z"/></svg>